<?xml version="1.0" encoding="UTF-8"?>
<svg width="700pt" height="700pt" version="1.1" viewBox="0 0 700 700" xmlns="http://www.w3.org/2000/svg">
 <path d="m253.93 448.52c-4.3477-0.046876-8.5703-1.4531-12.074-4.0234-3.6016-2.5039-6.2852-6.1172-7.6445-10.285-1.3555-4.1719-1.3164-8.6719 0.11719-12.816l32.023-98.699-83.996-60.199c-3.6719-2.6055-6.3828-6.3516-7.7109-10.652-1.3281-4.3047-1.2031-8.9258 0.35938-13.148 1.3398-4.1836 3.9805-7.832 7.5391-10.414 3.5547-2.5781 7.8438-3.957 12.234-3.9336h102.73l32.199-98.523v-0.003906c1.707-5.6484 5.7695-10.285 11.145-12.723s11.539-2.4375 16.914 0 9.4336 7.0742 11.141 12.723l33.602 98.527h103.6c4.3906-0.023437 8.6797 1.3555 12.234 3.9336 3.5586 2.582 6.1992 6.2305 7.5391 10.414 1.4766 4.3164 1.4688 9.0039-0.019531 13.316-1.4922 4.3086-4.3789 8-8.207 10.484l-84 60.898 32.023 98.699 0.003906 0.003906c1.4336 4.1445 1.4727 8.6406 0.11719 12.812-1.3594 4.168-4.043 7.7812-7.6445 10.285-3.4688 2.6406-7.7109 4.0703-12.074 4.0703-4.3594 0-8.6016-1.4297-12.074-4.0703l-84-61.598-84 60.898c-3.5078 2.5703-7.7305 3.9766-12.074 4.0234zm-59.324-206.67c-1.4141 0.34375-2.3242 1.7109-2.1016 3.1484-0.5625 1.2656-0.11719 2.7539 1.0508 3.5l89.074 64.75c3.1133 2.2031 4.3945 6.1953 3.1484 9.8008l-33.949 105c-0.42969 1.2695-0.007813 2.6758 1.0508 3.5 1.1094 0.94141 2.7383 0.94141 3.8516 0l89.074-64.75c3.0547-2.1133 7.0938-2.1133 10.148 0l89.074 64.75c1.1133 0.94141 2.7422 0.94141 3.8516 0 1.0586-0.82422 1.4805-2.2305 1.0508-3.5l-33.949-105c-1.2461-3.6055 0.035157-7.5977 3.1484-9.8008l88.375-65.625c1.168-0.74609 1.6133-2.2344 1.0508-3.5-0.26562-1.4062-1.5469-2.3906-2.9766-2.2734h-110.25c-3.7305-0.027343-7.0312-2.418-8.2227-5.9531l-34.125-105c-1.0508-3.6758-4.8984-3.6758-5.9492 0l-34.125 105h-0.003906c-1.1914 3.5352-4.4922 5.9258-8.2227 5.9531z"/>
</svg>
