<?xml version="1.0" encoding="utf-8"?>
<!-- Generator: Adobe Illustrator 22.1.0, SVG Export Plug-In . SVG Version: 6.00 Build 0)  -->
<svg version="1.1" id="Capa_1" xmlns="http://www.w3.org/2000/svg" xmlns:xlink="http://www.w3.org/1999/xlink" x="0px" y="0px"
	 viewBox="0 0 282 97" style="enable-background:new 0 0 282 97;" xml:space="preserve">
<g>
	<path d="M39.3,73.5H25.8V19.4H5.5V5.9h54.1v13.5H39.3V73.5z"/>
	<path d="M106.3,73.5h-3.1l-5-6.9c-1.2,1.1-2.5,2.1-3.9,3.1s-2.8,1.8-4.3,2.5s-3.1,1.3-4.6,1.7c-1.6,0.4-3.2,0.6-4.8,0.6
		c-3.6,0-6.9-0.6-10-1.8s-5.9-2.9-8.2-5.2c-2.3-2.3-4.2-5.1-5.5-8.4s-2-7.1-2-11.3c0-3.9,0.7-7.5,2-10.8c1.4-3.3,3.2-6.1,5.5-8.5
		s5.1-4.2,8.2-5.5s6.5-2,10-2c1.6,0,3.3,0.2,4.9,0.6s3.2,1,4.7,1.7s2.9,1.6,4.3,2.5c1.4,1,2.6,2,3.8,3.2l5-6h3.1L106.3,73.5
		L106.3,73.5z M93.4,47.8c0-1.8-0.3-3.5-1-5.1s-1.6-3.1-2.8-4.4s-2.5-2.3-4.1-3.1s-3.2-1.2-5-1.2s-3.4,0.3-5,0.9s-2.9,1.5-4.1,2.6
		c-1.1,1.2-2.1,2.6-2.7,4.3c-0.7,1.7-1,3.7-1,5.9s0.3,4.2,1,5.9s1.6,3.1,2.7,4.3s2.5,2,4.1,2.6s3.2,0.9,5,0.9s3.4-0.4,5-1.2
		s2.9-1.8,4.1-3.1s2.1-2.7,2.8-4.4C93,51.2,93.4,49.5,93.4,47.8z"/>
	<path d="M129,73.5h-12.9V23h3.1l4.2,4.9c2.1-1.9,4.4-3.3,7-4.4c2.6-1,5.4-1.5,8.2-1.5c3.1,0,6,0.6,8.7,1.8s5.1,2.8,7.2,4.9
		c2,2.1,3.7,4.5,4.8,7.2c1.2,2.7,1.8,5.7,1.8,8.8v28.8h-12.9V44.7c0-1.3-0.3-2.6-0.8-3.7s-1.2-2.2-2.1-3.1s-1.9-1.6-3.1-2.1
		s-2.4-0.8-3.7-0.8c-1.4,0-2.6,0.3-3.8,0.8s-2.2,1.2-3.1,2.1s-1.6,1.9-2.1,3.1s-0.8,2.4-0.8,3.7v28.8H129z"/>
	<path d="M219.2,67.1c0,3.6-0.7,6.9-2,10c-1.4,3.1-3.2,5.8-5.5,8.2c-2.3,2.3-5.1,4.2-8.2,5.5c-3.1,1.4-6.5,2-10,2l-6.5-0.1V79.8
		l6.4,0.1c2,0,3.7-0.3,5.1-0.8s2.6-1.2,3.6-2.1s1.8-1.9,2.3-3.1c0.6-1.2,1-2.4,1.4-3.7c-0.5,0.8-1.2,1.5-2.2,2s-2,0.9-3.1,1.3
		c-1.1,0.3-2.3,0.6-3.6,0.7s-2.4,0.2-3.5,0.2c-3.6,0-6.9-0.6-10-1.8c-3.1-1.2-5.9-3-8.2-5.3s-4.2-5.1-5.5-8.4c-1.4-3.3-2-7-2-11.2
		c0-3.8,0.7-7.3,2-10.6s3.2-6.1,5.5-8.5s5.1-4.3,8.2-5.6c3.1-1.4,6.5-2,10-2c1.6,0,3.3,0.2,4.9,0.6s3.2,1,4.7,1.7s2.9,1.6,4.3,2.5
		c1.4,1,2.6,2,3.8,3.2l5-6h3.1V67.1L219.2,67.1z M206.3,47.8c0-1.8-0.3-3.5-1-5.1s-1.6-3.1-2.8-4.4c-1.2-1.3-2.5-2.3-4.1-3.1
		s-3.2-1.2-5-1.2s-3.4,0.3-5,0.9s-2.9,1.5-4.1,2.6c-1.1,1.2-2.1,2.6-2.7,4.3c-0.7,1.7-1,3.7-1,5.9c0,2.1,0.3,4,1,5.7
		s1.6,3.1,2.7,4.3c1.1,1.2,2.5,2.1,4.1,2.8c1.6,0.6,3.2,1,5,1s3.4-0.4,5-1.2s2.9-1.8,4.1-3.1c1.2-1.3,2.1-2.7,2.8-4.4
		C206,51.2,206.3,49.5,206.3,47.8z"/>
	<path d="M277.8,47.8c0,3.8-0.7,7.3-2,10.5c-1.4,3.3-3.2,6.1-5.5,8.4c-2.3,2.4-5.1,4.2-8.2,5.6s-6.5,2.1-10.1,2.1s-6.9-0.7-10-2.1
		s-5.9-3.2-8.2-5.6s-4.2-5.2-5.5-8.4c-1.4-3.3-2-6.8-2-10.5c0-3.8,0.7-7.4,2-10.7c1.4-3.3,3.2-6.1,5.5-8.5s5.1-4.2,8.2-5.6
		s6.5-2,10-2c3.6,0,6.9,0.6,10.1,1.9c3.1,1.3,5.9,3.1,8.2,5.4c2.3,2.3,4.2,5.2,5.5,8.4C277.2,40.1,277.8,43.8,277.8,47.8z
		 M264.9,47.8c0-2.1-0.3-4-1-5.6s-1.6-3.1-2.8-4.3c-1.2-1.2-2.5-2.1-4.1-2.8c-1.6-0.6-3.2-1-5-1s-3.4,0.3-5,1
		c-1.6,0.6-2.9,1.6-4.1,2.8c-1.1,1.2-2,2.7-2.7,4.3c-0.7,1.7-1,3.6-1,5.6c0,1.9,0.3,3.8,1,5.4c0.7,1.7,1.6,3.1,2.7,4.3
		c1.1,1.2,2.5,2.2,4.1,2.9s3.2,1.1,5,1.1s3.4-0.3,5-1s2.9-1.6,4.1-2.8s2.1-2.6,2.8-4.3C264.5,51.7,264.9,49.8,264.9,47.8z"/>
</g>
</svg>
